<svg fill="none" xmlns="http://www.w3.org/2000/svg">
    <defs>
        <symbol id="arrow-left" viewBox="0 0 7 12" width="7" height="12">
            <path d="M5.99984 12C5.74397 12 5.48797 11.9023 5.29297 11.707L0.292969 6.70703C-0.0976562 6.31641 -0.0976562 5.68359 0.292969 5.29297L5.29297 0.292969C5.68359 -0.0976562 6.31641 -0.0976562 6.70703 0.292969C7.09766 0.683594 7.09766 1.31641 6.70703 1.70703L2.41391 6L6.70766 10.2937C7.09828 10.6844 7.09828 11.3172 6.70766 11.7078C6.51234 11.9031 6.25609 12 5.99984 12Z"/>
        </symbol> 
        <symbol id="arrow-left-big" viewBox="0 0 12 20" width="12" height="20">
            <path d="M0.709994 10.9901L9.30969 19.5896C9.85669 20.1369 10.7437 20.1369 11.2905 19.5896C11.8373 19.0427 11.8373 18.1558 11.2905 17.6091L3.68104 9.99988L11.2902 2.39096C11.8371 1.84391 11.8371 0.957107 11.2902 0.410284C10.7434 -0.136761 9.85649 -0.136761 9.30949 0.410284L0.709774 9.00985C0.436354 9.28339 0.299805 9.64153 0.299805 9.99983C0.299805 10.3583 0.436624 10.7167 0.709994 10.9901Z"/>
        </symbol> 
        <symbol id="sortAB" viewBox="0 0 19 22" width="19" height="22">
            <path fill-rule="evenodd" clip-rule="evenodd" d="M4 0.212836C4.26035 -0.0709453 4.68246 -0.0709453 4.94281 0.212836L8.94281 4.57284L8 5.6005L5.13807 2.48099V21.8H3.80474V2.48099L0.942809 5.6005L0 4.57284L4 0.212836ZM15.1381 1.45333C14.0335 1.45333 13.1381 2.42935 13.1381 3.63333V5.81333H17.1381V3.63333C17.1381 2.42935 16.2426 1.45333 15.1381 1.45333ZM17.1381 7.26667V10.1733H18.4714V3.63333C18.4714 1.6267 16.979 1.08282e-08 15.1381 1.08282e-08C13.2971 1.08282e-08 11.8047 1.6267 11.8047 3.63333V10.1733H13.1381V7.26667H17.1381ZM11.8047 11.6267H15.8047C17.2775 11.6267 18.4714 12.928 18.4714 14.5333C18.4714 15.4015 18.1222 16.1807 17.5686 16.7133C18.1222 17.2459 18.4714 18.0252 18.4714 18.8933C18.4714 20.4986 17.2775 21.8 15.8047 21.8H11.8047V11.6267ZM15.8047 15.9867C16.5411 15.9867 17.1381 15.336 17.1381 14.5333C17.1381 13.7307 16.5411 13.08 15.8047 13.08H13.1381V15.9867H15.8047ZM13.1381 17.44H15.8047C16.5411 17.44 17.1381 18.0907 17.1381 18.8933C17.1381 19.696 16.5411 20.3467 15.8047 20.3467H13.1381V17.44Z"/>
        </symbol>
        <symbol id="sortBA" viewBox="0 0 19 22" width="19" height="22">
            <path fill-rule="evenodd" clip-rule="evenodd" d="M3.80474 19.319V0H5.13807V19.319L8 16.1995L8.94281 17.2272L4.94281 21.5872C4.81778 21.7234 4.64822 21.8 4.4714 21.8C4.29459 21.8 4.12502 21.7234 4 21.5872L0 17.2272L0.942809 16.1995L3.80474 19.319ZM15.1381 1.45333C14.0335 1.45333 13.1381 2.42935 13.1381 3.63333V5.81333H17.1381V3.63333C17.1381 2.42935 16.2426 1.45333 15.1381 1.45333ZM17.1381 7.26667V10.1733H18.4714V3.63333C18.4714 1.6267 16.979 0 15.1381 0C13.2971 0 11.8047 1.6267 11.8047 3.63333V10.1733H13.1381V7.26667H17.1381ZM11.8047 11.6267H15.8047C17.2775 11.6267 18.4714 12.928 18.4714 14.5333C18.4714 15.4015 18.1222 16.1807 17.5686 16.7133C18.1222 17.2459 18.4714 18.0252 18.4714 18.8933C18.4714 20.4986 17.2775 21.8 15.8047 21.8H11.8047V11.6267ZM15.8047 15.9867C16.5411 15.9867 17.1381 15.336 17.1381 14.5333C17.1381 13.7307 16.5411 13.08 15.8047 13.08H13.1381V15.9867H15.8047ZM13.1381 17.44H15.8047C16.5411 17.44 17.1381 18.0907 17.1381 18.8933C17.1381 19.696 16.5411 20.3467 15.8047 20.3467H13.1381V17.44Z"/>
        </symbol>
        <symbol id="smile-dislike" viewBox="0 0 30 33" width="30" height="33">
            <path fill-rule="evenodd" clip-rule="evenodd" d="M0 16.4C0 7.37019 6.71573 0.0500488 15 0.0500488C23.2843 0.0500488 30 7.37019 30 16.4C30 25.4299 23.2843 32.75 15 32.75C6.71573 32.75 0 25.4299 0 16.4ZM15 2.23005C7.8203 2.23005 2 8.57417 2 16.4C2 24.2259 7.8203 30.57 15 30.57C22.1797 30.57 28 24.2259 28 16.4C28 8.57417 22.1797 2.23005 15 2.23005ZM10 13.13H8V10.95H10V13.13ZM22 13.13H20V10.95H22V13.13ZM7.6 22.0681L8.2 21.196C11.6 16.2547 18.4 16.2547 21.8 21.196L22.4 22.0681L20.8 23.376L20.2 22.504C17.6 18.7254 12.4 18.7254 9.8 22.504L9.2 23.376L7.6 22.0681Z"/>
        </symbol>
        <symbol id="smile-like" viewBox="0 0 30 33" width="30" height="33">
            <path fill-rule="evenodd" clip-rule="evenodd" d="M0 16.4C0 7.37019 6.71573 0.0500488 15 0.0500488C23.2843 0.0500488 30 7.37019 30 16.4C30 25.4299 23.2843 32.75 15 32.75C6.71573 32.75 0 25.4299 0 16.4ZM15 2.23005C7.8203 2.23005 2 8.57417 2 16.4C2 24.2259 7.8203 30.57 15 30.57C22.1797 30.57 28 24.2259 28 16.4C28 8.57417 22.1797 2.23005 15 2.23005ZM10 13.13H8V10.95H10V13.13ZM22 13.13H20V10.95H22V13.13ZM9.2 18.1441L9.8 19.016C12.4 22.7947 17.6 22.7947 20.2 19.016L20.8 18.1441L22.4 19.452L21.8 20.324C18.4 25.2654 11.6 25.2654 8.2 20.324L7.6 19.452L9.2 18.1441Z"/>
        </symbol>
        <symbol id="smile-love" viewBox="0 0 30 29" width="30" height="29">
            <path fill-rule="evenodd" clip-rule="evenodd" d="M8.07107 2.40998C4.71811 2.40998 2 5.37272 2 9.02744C2 10.7825 2.63963 12.4657 3.77817 13.7067L15 25.9385L26.2218 13.7067C27.3604 12.4657 28 10.7825 28 9.02744C28 5.37272 25.2819 2.40998 21.9289 2.40998C20.3188 2.40998 18.7746 3.10717 17.636 4.34819L15.7071 6.45073C15.3166 6.8764 14.6834 6.8764 14.2929 6.45073L12.364 4.34819C11.2254 3.10718 9.68121 2.40998 8.07107 2.40998ZM0 9.02744C0 4.16874 3.61354 0.22998 8.07107 0.22998C10.2116 0.22998 12.2646 1.15685 13.7782 2.8067L15 4.13849L16.2218 2.8067C17.7354 1.15685 19.7884 0.22998 21.9289 0.22998C26.3865 0.22998 30 4.16874 30 9.02744C30 11.3607 29.1497 13.5983 27.636 15.2482L15.7071 28.2507C15.3166 28.6764 14.6834 28.6764 14.2929 28.2507L2.36396 15.2482C0.850339 13.5983 0 11.3607 0 9.02744Z"/>
        </symbol>
        <symbol id="find" viewBox="0 0 20 20" width="20" height="20">
            <path d="M19.3608 18.2168L14.6007 13.2662C15.8246 11.8113 16.4952 9.98069 16.4952 8.07499C16.4952 3.62251 12.8727 0 8.42021 0C3.96773 0 0.345215 3.62251 0.345215 8.07499C0.345215 12.5275 3.96773 16.15 8.42021 16.15C10.0917 16.15 11.6846 15.6458 13.0465 14.6888L17.8427 19.677C18.0431 19.8852 18.3128 20 18.6017 20C18.8752 20 19.1347 19.8957 19.3316 19.7061C19.7501 19.3034 19.7635 18.6357 19.3608 18.2168ZM8.42021 2.10652C11.7113 2.10652 14.3887 4.78391 14.3887 8.07499C14.3887 11.3661 11.7113 14.0435 8.42021 14.0435C5.12912 14.0435 2.45173 11.3661 2.45173 8.07499C2.45173 4.78391 5.12912 2.10652 8.42021 2.10652Z"         />
        </symbol>
        <symbol id="upload" viewBox="0 0 16 16" width="16" height="16">
            <path fill-rule="evenodd" clip-rule="evenodd" d="M7.86601 0L12.2355 4.03339L11.4129 4.92452L8.48919 2.22567V12.3618H7.27645V2.30464L4.67336 4.90772L3.81583 4.05019L7.86601 0ZM1.21274 14.7873V7.51081H0V16H15.7656V7.51081H14.5529V14.7873H1.21274Z"/>
        </symbol>
        <symbol id="reload" viewBox="0 0 18 20" width="18" height="20">
            <path fill-rule="evenodd" clip-rule="evenodd" d="M8.48189 2.49989L6.93396 0.953004L7.88633 0L11.0577 3.16928L7.88634 6.33873L6.93395 5.38576L8.47232 3.84832C4.51244 3.99813 1.3473 7.25498 1.3473 11.2478C1.3473 15.3361 4.66547 18.6527 8.75744 18.6527C12.8494 18.6527 16.1676 15.3361 16.1676 11.2478V10.5742H17.5149V11.2478C17.5149 16.081 13.5927 20 8.75744 20C3.92221 20 0 16.081 0 11.2478C0 6.50682 3.77407 2.64542 8.48189 2.49989Z" />
        </symbol>        
    </defs>
</svg>
